<?xml version="1.0" encoding="UTF-8"?>
<svg id="Layer_1" data-name="Layer 1" xmlns="http://www.w3.org/2000/svg" xmlns:xlink="http://www.w3.org/1999/xlink" viewBox="0 0 273.526426045016706 132.363430761642121">
  <defs>
    <linearGradient id="linear-gradient" x1="79.550352552932964" y1="37.412389293943306" x2="85.717719422186747" y2="37.412389293943306" gradientTransform="translate(-49.604571035879836 48.50314010132584) rotate(-23.856418097995487)" gradientUnits="userSpaceOnUse">
      <stop offset="0" stop-color="#fff"/>
      <stop offset=".207771606823375" stop-color="#d8efec"/>
      <stop offset=".668597149930899" stop-color="#79c9bd"/>
      <stop offset="1" stop-color="#31ac9a"/>
    </linearGradient>
    <radialGradient id="radial-gradient" cx="84.464023153221206" cy="22.444835945268096" fx="84.464023153221206" fy="22.444835945268096" r="4.595171413284016" gradientTransform="translate(-49.604571035879836 48.50314010132584) rotate(-23.856418097995487)" gradientUnits="userSpaceOnUse">
      <stop offset="0" stop-color="#fff"/>
      <stop offset=".207771606823375" stop-color="#d8efec"/>
      <stop offset=".668597149930899" stop-color="#79c9bd"/>
      <stop offset="1" stop-color="#31ac9a"/>
    </radialGradient>
    <linearGradient id="linear-gradient-2" x1="78.760301747028279" y1="29.344513684348385" x2="83.557941824150475" y2="29.344513684348385" xlink:href="#linear-gradient"/>
    <linearGradient id="linear-gradient-3" x1="36.222465488098351" y1="56.849706007063105" x2="58.032924791370533" y2="56.849706007063105" gradientTransform="translate(27.806482742486494 -29.01927275449458) rotate(11.534460471467456)" gradientUnits="userSpaceOnUse">
      <stop offset="0" stop-color="#fd709f"/>
      <stop offset=".039233050082507" stop-color="#fd6992"/>
      <stop offset=".131997209178905" stop-color="#fd5e7c"/>
      <stop offset=".240239899267055" stop-color="#fe556b"/>
      <stop offset=".371951389983459" stop-color="#fe4f5f"/>
      <stop offset=".551829090624711" stop-color="#fe4c57"/>
      <stop offset="1" stop-color="#ff4b56"/>
    </linearGradient>
    <linearGradient id="linear-gradient-4" x1="39.8424793509148" y1="61.975388668499363" x2="45.991814654656991" y2="61.975388668499363" gradientTransform="translate(27.633439144275144 -29.429104884705581) rotate(12.328107008470417)" gradientUnits="userSpaceOnUse">
      <stop offset="0" stop-color="#fff"/>
      <stop offset=".23535238409405" stop-color="#ffd8db"/>
      <stop offset=".758109137838883" stop-color="#ff7981"/>
      <stop offset="1" stop-color="#ff4b56"/>
    </linearGradient>
    <radialGradient id="radial-gradient-2" cx="44.741778778247863" cy="47.051624859738695" fx="44.741778778247863" fy="47.051624859738695" r="4.581714032452208" gradientTransform="translate(27.633439144275144 -29.429104884705581) rotate(12.328107008470417)" gradientUnits="userSpaceOnUse">
      <stop offset="0" stop-color="#fff"/>
      <stop offset=".23535238409405" stop-color="#ffd8db"/>
      <stop offset=".758109137838883" stop-color="#ff7981"/>
      <stop offset="1" stop-color="#ff4b56"/>
    </radialGradient>
    <linearGradient id="linear-gradient-5" x1="39.05475754953477" y1="53.931118067259376" x2="43.838329521832748" y2="53.931118067259376" xlink:href="#linear-gradient-4"/>
    <linearGradient id="linear-gradient-6" x1="31.786368399752064" y1="12.828279409008246" x2="57.023463301344236" y2="12.828279409008246" gradientTransform="translate(-.347733561868834 1.421408442862187) rotate(-1.163392012203582)" gradientUnits="userSpaceOnUse">
      <stop offset="0" stop-color="#feadc8"/>
      <stop offset=".011821187100263" stop-color="#fdabc6"/>
      <stop offset=".244235538181505" stop-color="#fd91b5"/>
      <stop offset=".483230014910215" stop-color="#fd7ea8"/>
      <stop offset=".730741405057917" stop-color="#fd73a1"/>
      <stop offset="1" stop-color="#fd709f"/>
    </linearGradient>
    <linearGradient id="linear-gradient-7" x1="43.1046846340314" y1="-61.250944712798628" x2="49.042322650929236" y2="-61.250944712798628" gradientTransform="translate(13.549018913834033 82.186323542266962) rotate(-19.989704313113979)" gradientUnits="userSpaceOnUse">
      <stop offset="0" stop-color="#fff"/>
      <stop offset=".291309781493641" stop-color="#fed9e5"/>
      <stop offset=".939354543197776" stop-color="#fd79a5"/>
      <stop offset="1" stop-color="#fd709f"/>
    </linearGradient>
    <linearGradient id="linear-gradient-8" x1="42.627261296736833" y1="-57.082499670444122" x2="45.525932488752915" y2="-57.082499670444122" xlink:href="#linear-gradient-7"/>
  </defs>
  <g>
    <path d="M5.14501953125,116.482571386642121c-.73486328125-.33984375-1.375-.87109375-1.91943359375-1.591796875-.54443359375-.7216796875-.9931640625-1.5244140625-1.33349609375-2.3955078125-.34033203125-.857421875-.58544921875-1.6748046875-.7216796875-2.4228515625-.421875-2.3818359375-.6259765625-4.8046875-.6259765625-7.2685546875v-.92578125c0-5.8662109375.6533203125-11.228515625,1.9462890625-16.07421875,1.60595703125-5.9609375,4.328125-10.6982421875,8.18017578125-14.1962890625,1.5517578125-1.3466796875,3.40283203125-2.3134765625,5.53955078125-2.87109375,1.66064453125-.44921875,3.38916015625-.6669921875,5.15869140625-.6669921875.50341796875,0,1.4560546875.0537109375,2.87158203125.1494140625s3.15771484375.5712890625,5.2265625,1.416015625c2.06884765625.84375,3.81103515625,2,5.21337890625,3.484375,1.8642578125,2.068359375,2.7900390625,4.61328125,2.7900390625,7.6484375,0,.7900390625-.12255859375,1.865234375-.38134765625,3.212890625-.25830078125,1.3466796875-.89794921875,2.8984375-1.9189453125,4.640625-1.02099609375,1.755859375-2.23193359375,3.3486328125-3.63427734375,4.77734375-2.05517578125,2.0966796875-4.314453125,3.6884765625-6.77783203125,4.77734375-2.4638671875,1.1025390625-5.10400390625,1.9599609375-7.908203125,2.599609375l-.27197265625.068359375h.04052734375l-.1357421875.041015625h.05419921875c.013671875.013671875.013671875.02734375.013671875.041015625l-.02734375.0810546875c-.05419921875.109375-.08154296875.2998046875-.08154296875.5859375,0,.1767578125.013671875.3671875.05419921875.5712890625.39501953125,2.3681640625,1.40234375,4.478515625,3.03564453125,6.3154296875,1.63330078125,1.8515625,3.57958984375,3.3212890625,5.8388671875,4.396484375,2.46337890625,1.1845703125,5.0087890625,1.76953125,7.6357421875,1.76953125l1.12939453125-.041015625c.14990234375,0,.2724609375.041015625.38134765625.1357421875.13623046875.109375.2041015625.2451171875.2041015625.408203125,0,.13671875-.04052734375.2587890625-.12255859375.3818359375-.09521484375.1083984375-.2177734375.1767578125-.380859375.1904296875-.013671875.013671875-.2041015625.02734375-.55810546875.0546875-.36767578125.0400390625-.912109375.0537109375-1.64697265625.0537109375-.6396484375,0-1.42919921875-.0537109375-2.3681640625-.1630859375-.939453125-.1220703125-2.0009765625-.380859375-3.19873046875-.775390625s-2.44970703125-.994140625-3.74267578125-1.796875c-1.29345703125-.802734375-2.55908203125-1.837890625-3.7841796875-3.103515625-.6123046875-.6396484375-1.279296875-1.4560546875-2.00048828125-2.4765625-.7216796875-1.0078125-1.306640625-2.0693359375-1.755859375-3.185546875-.2861328125-.734375-.435546875-1.4287109375-.435546875-2.095703125,0-.3408203125.08154296875-.84375.2314453125-1.4833984375.1494140625-.6396484375.87109375-1.2119140625,2.1640625-1.728515625.78955078125-.2861328125,1.56494140625-.544921875,2.3271484375-.7626953125.8984375-.2587890625,1.783203125-.5576171875,2.654296875-.8984375.857421875-.33984375,1.701171875-.802734375,2.53173828125-1.4013671875,2.49072265625-1.810546875,4.61376953125-3.974609375,6.39697265625-6.4794921875,1.0751953125-1.5380859375,1.89208984375-3.2119140625,2.4365234375-5.0087890625.3671875-1.224609375.55810546875-2.44921875.55810546875-3.6748046875,0-.5576171875-.08203125-1.4423828125-.2587890625-2.626953125-.1767578125-1.18359375-.92578125-2.53125-2.25927734375-4.0419921875-1.5927734375-1.673828125-3.64794921875-2.8583984375-6.15234375-3.5390625-1.63330078125-.435546875-3.2802734375-.6533203125-4.9541015625-.6533203125-.87109375,0-2.177734375.109375-3.90673828125.353515625-1.728515625.2451171875-3.484375,1.076171875-5.29443359375,2.4775390625-3.6748046875,3.0625-6.2607421875,7.6083984375-7.77197265625,13.6376953125-1.10205078125,4.35546875-1.646484375,9.0380859375-1.646484375,14.033203125,0,.6533203125,0,1.279296875.02685546875,1.9052734375.041015625,2.5732421875.35400390625,5.0361328125.912109375,7.390625l.013671875.0546875c.53076171875,2.19140625,1.17041015625,3.6201171875,1.9189453125,4.287109375.2314453125.2041015625.462890625.2998046875.73486328125.2998046875.61279296875,0,1.06201171875-.44921875,1.361328125-1.361328125.2041015625-.6396484375.36767578125-1.265625.490234375-1.8916015625.06787109375-.3671875.1494140625-.6533203125.2177734375-.884765625,1.71484375-5.59375,3.10302734375-11.4326171875,4.17822265625-17.5166015625.013671875-.08203125.02734375-.1640625.041015625-.2314453125.93896484375-4.955078125,1.41552734375-8.84765625,1.41552734375-11.6650390625,0-.9658203125-.041015625-1.9462890625-.12255859375-2.912109375v-.095703125l.013671875.013671875c-.08154296875-.2451171875-.12255859375-.490234375-.12255859375-.7216796875,0-.2861328125.09521484375-.6123046875.28564453125-.9794921875.19091796875-.3544921875.53076171875-.61328125,1.03466796875-.7763671875.1904296875-.0537109375.380859375-.0810546875.55810546875-.0810546875.68017578125,0,1.21142578125.298828125,1.57861328125.8984375l.068359375.1083984375c.53076171875.953125.802734375,2.0556640625.802734375,3.2802734375,0,.041015625,0,.39453125-.013671875,1.0478515625s-.10888671875,1.5791015625-.29931640625,2.7763671875l-.14990234375,1.279296875c-.25830078125,2.4775390625-.70751953125,5.390625-1.3203125,8.751953125-.6123046875,3.3623046875-1.4833984375,7.064453125-2.5859375,11.1337890625-.55810546875,2.0146484375-1.224609375,4.0966796875-2.00048828125,6.2607421875l-.068359375.19140625c-.2041015625.5849609375-.47607421875,1.251953125-.78955078125,2-.326171875.7490234375-.72119140625,1.45703125-1.17041015625,2.0966796875s-.97998046875,1.1162109375-1.57861328125,1.4013671875c-.2998046875.150390625-.61279296875.2177734375-.953125.2177734375-.353515625,0-.72119140625-.0673828125-1.11572265625-.2314453125Z"/>
    <path d="M37.10400390625,96.175930761642121c.013671875-2.287109375.42236328125-4.2744140625,1.19775390625-5.9345703125.2314453125-.490234375.40869140625-.802734375.53125-.953125.1494140625-.1904296875.380859375-.33984375.70751953125-.435546875l-.013671875-.1630859375c0-.1767578125.06787109375-.33984375.2177734375-.4765625.08154296875-.068359375.16357421875-.1083984375.2587890625-.1357421875l.54443359375-.13671875c.421875-.1083984375.857421875-.1630859375,1.306640625-.1630859375.87109375,0,1.56494140625.1767578125,2.08251953125.53125,1.224609375.857421875,1.8779296875,1.9189453125,1.9599609375,3.1982421875l.01318359375.517578125c0,.775390625-.1220703125,1.619140625-.39453125,2.50390625-.2587890625.884765625-.5849609375,1.701171875-.95263671875,2.4638671875-.32666015625.6943359375-.76220703125,1.4013671875-1.3203125,2.109375s-1.22509765625,1.2255859375-1.9736328125,1.5654296875c-.32666015625.1494140625-.6669921875.2177734375-1.0341796875.2177734375-2.08251953125,0-3.130859375-1.5654296875-3.130859375-4.708984375ZM41.29638671875,98.993313574142121c.2314453125-.123046875.47607421875-.3134765625.70751953125-.572265625.7490234375-.76171875,1.333984375-1.66015625,1.755859375-2.6806640625.4765625-1.1708984375.7216796875-2.341796875.7216796875-3.484375,0-1.048828125-.2861328125-1.87890625-.857421875-2.4775390625-.14990234375-.1494140625-.3134765625-.2587890625-.490234375-.353515625-.55810546875-.2587890625-1.0478515625-.3818359375-1.4697265625-.3818359375-.17724609375,0-.36767578125.02734375-.544921875.08203125-.09521484375.041015625-.1494140625.0546875-.1767578125.0546875.08154296875.0810546875.16357421875.1904296875.2451171875.326171875.1904296875.3408203125.28564453125.6123046875.28564453125.830078125s-.05419921875.462890625-.1767578125.7353515625c-.0546875.1220703125-.09521484375.2451171875-.13623046875.3671875l-.6123046875,1.5654296875c-.6533203125,1.4833984375-.97998046875,2.8447265625-.97998046875,4.1103515625,0,.1767578125.013671875.44921875.02685546875.8310546875.02734375.3671875.2177734375.720703125.58544921875,1.0615234375.17724609375.1220703125.36767578125.1904296875.54443359375.1904296875.14990234375,0,.34033203125-.068359375.57177734375-.2041015625Z"/>
    <path d="M48.8642578125,122.471829199142121c-.462890625-.3408203125-.78955078125-.7626953125-.97998046875-1.29296875-.31298828125-.857421875-.462890625-2.0146484375-.462890625-3.45703125,0-.98046875.08154296875-1.9599609375.2587890625-2.8994140625.55810546875-3.048828125,1.5244140625-5.8115234375,2.89892578125-8.275390625,2.21875-3.98828125,5.0908203125-7.1181640625,8.60205078125-9.3779296875.068359375-.6943359375.09521484375-1.4287109375.09521484375-2.19140625,0-.39453125-.013671875-.9521484375-.02685546875-1.6875-.013671875-.7216796875-.10888671875-1.361328125-.2861328125-1.9189453125-.09521484375-.1904296875-.2177734375-.2998046875-.3671875-.2998046875-.12255859375,0-.2451171875.0546875-.35400390625.1767578125-.16357421875.1904296875-.53076171875.6806640625-1.0888671875,1.4833984375-2.74951171875,3.8662109375-4.396484375,6.1796875-4.94091796875,6.9150390625-.2314453125.33984375-.57177734375.6259765625-.99365234375.884765625-.24462890625.1357421875-.50341796875.2177734375-.775390625.2177734375-.20458984375,0-.40869140625-.041015625-.61279296875-.123046875-.57177734375-.2861328125-.97998046875-.6943359375-1.21142578125-1.23828125-.39453125-.912109375-.5986328125-1.9599609375-.5986328125-3.130859375,0-1.0615234375.1767578125-2.19140625.51708984375-3.388671875.6806640625-2.3955078125,1.19775390625-3.7294921875,1.5244140625-4.015625l.31298828125-.2177734375c.2314453125-.0947265625.462890625-.1357421875.6943359375-.1357421875.6259765625,0,1.1162109375.2724609375,1.4697265625.802734375l.1904296875.3134765625c.013671875,0,.02734375.02734375.0546875.0810546875.041015625.123046875.06787109375.2451171875.06787109375.3955078125,0,.1767578125-.05419921875.39453125-.1494140625.6533203125-.2451171875.6796875-.51708984375,1.66015625-.80322265625,2.939453125-.34033203125,1.29296875-.5986328125,2.7626953125-.77587890625,4.41015625v.0546875c0,.2041015625.0546875.3125.16357421875.3125.05419921875,0,.12255859375-.02734375.2314453125-.0947265625.25830078125-.150390625.70751953125-.6943359375,1.3203125-1.6064453125.33984375-.50390625.70751953125-.9931640625,1.10205078125-1.4970703125.6806640625-.84375,1.41552734375-1.892578125,2.205078125-3.14453125.29931640625-.462890625.61279296875-.92578125.92578125-1.3876953125,1.14306640625-1.6611328125,2.21826171875-2.4912109375,3.1982421875-2.4912109375.041015625,0,.16357421875,0,.38134765625.013671875.2314453125.013671875.47607421875.109375.76220703125.3134765625.27197265625.2041015625.46240234375.380859375.57177734375.5576171875.6259765625.8984375.93896484375,2.681640625.93896484375,5.3486328125l-.013671875.6533203125c.830078125-.3671875,1.60595703125-.6796875,2.32763671875-.9248046875,1.2109375-.408203125,2.177734375-.6943359375,2.91259765625-.857421875l1.42919921875-.3134765625c.08154296875,0,.1630859375.02734375.2451171875.08203125.1083984375.0810546875.1767578125.1767578125.1767578125.326171875,0,.2041015625-.10888671875.3408203125-.31298828125.408203125l-1.1162109375.2587890625c-1.90576171875.4765625-3.81103515625,1.1845703125-5.703125,2.123046875-.1494140625,3.0087890625-.6123046875,6.0029296875-1.38818359375,8.9833984375-.857421875,3.14453125-2.109375,6.166015625-3.7294921875,9.064453125-.46240234375.8447265625-1.19775390625,1.9873046875-2.21826171875,3.4169921875-1.02099609375,1.4423828125-2.15087890625,2.7353515625-3.40283203125,3.865234375-.462890625.421875-.97998046875.7763671875-1.5380859375,1.0478515625-.2451171875.109375-.4765625.1640625-.72119140625.1640625-.34033203125,0-.6669921875-.095703125-1.00732421875-.2998046875ZM50.71533203125,120.593899511642121c.1904296875-.2451171875.39453125-.544921875.59912109375-.884765625,1.4697265625-1.9599609375,2.7353515625-4.2060546875,3.78369140625-6.7509765625,1.17041015625-2.8447265625,2.109375-5.73046875,2.8173828125-8.6845703125.47607421875-1.9189453125.857421875-3.810546875,1.1162109375-5.7021484375-2.96728515625,2.177734375-5.40380859375,5.0361328125-7.29541015625,8.587890625-1.27978515625,2.3818359375-2.15087890625,5.0224609375-2.61328125,7.89453125-.13623046875.81640625-.2041015625,1.6328125-.2041015625,2.4365234375,0,.9658203125.09521484375,1.8369140625.27197265625,2.61328125.14990234375.6943359375.38134765625,1.0478515625.70751953125,1.0478515625.2587890625,0,.53125-.1904296875.81689453125-.5576171875Z"/>
    <path d="M69.67578125,101.756008886642121c-.44921875-.3134765625-.81640625-.7490234375-1.0888671875-1.279296875-.39453125-.857421875-.6396484375-1.673828125-.70751953125-2.4638671875-.041015625-.39453125-.068359375-.7890625-.068359375-1.18359375,0-.3955078125.02734375-.7763671875.068359375-1.1572265625.2177734375-1.6337890625.7890625-3.048828125,1.7421875-4.259765625.50341796875-.654296875,1.11572265625-1.1982421875,1.86474609375-1.6201171875,1.0341796875-.5986328125,2.05517578125-.8984375,3.048828125-.8984375.5576171875,0,1.10205078125.109375,1.6328125.3408203125.6806640625.33984375,1.22509765625.81640625,1.6337890625,1.4150390625.1357421875-.3671875.28564453125-.7490234375.44873046875-1.1298828125l.14990234375-.2724609375c.31298828125-.5029296875.74853515625-.748046875,1.306640625-.748046875.36767578125,0,.73486328125.1083984375,1.1025390625.3125.6123046875.3818359375.92529296875.8583984375.92529296875,1.4296875,0,.1767578125-.04052734375.3671875-.10888671875.5712890625-.02685546875.0546875-.39453125,1.0078125-1.0888671875,2.8583984375-.89794921875,2.287109375-1.4970703125,4.0966796875-1.79638671875,5.4580078125-.0546875.2177734375-.08154296875.421875-.08154296875.6259765625,0,.2861328125.09521484375.435546875.27197265625.435546875.2177734375,0,.51708984375-.1494140625.8984375-.462890625.96630859375-.70703125,2.01416015625-1.701171875,3.15771484375-2.98046875,1.37451171875-1.5107421875,2.640625-3.130859375,3.78369140625-4.845703125.10888671875-.1494140625.2451171875-.2177734375.421875-.2177734375.09521484375,0,.17724609375.02734375.2587890625.08203125.14990234375.1083984375.2177734375.2451171875.2177734375.421875,0,.095703125-.02734375.1767578125-.08154296875.2587890625l-.041015625.0537109375c-1.21142578125,1.361328125-2.3681640625,2.763671875-3.484375,4.2060546875l-.87109375,1.1025390625c-1.9462890625,2.5859375-3.37548828125,4.029296875-4.314453125,4.30078125-.16357421875.041015625-.32666015625.068359375-.490234375.068359375-.34033203125,0-.6669921875-.095703125-1.00732421875-.2861328125-.84375-.5576171875-1.265625-1.6875-1.265625-3.388671875,0-.408203125.013671875-.7626953125.041015625-1.0615234375.01318359375-.041015625.01318359375-.109375.01318359375-.1904296875,0-.3134765625.02734375-.50390625.08203125-.5859375-.16357421875.2314453125-.32666015625.4765625-.490234375.7353515625-1.21142578125,1.837890625-2.24560546875,3.2119140625-3.10302734375,4.1240234375-.4765625.4765625-.96630859375.7080078125-1.49755859375.7216796875-.53076171875,0-1.0341796875-.1640625-1.4833984375-.490234375ZM74.3173828125,97.047024511642121c.23095703125-.2861328125.44873046875-.544921875.6396484375-.7626953125.6669921875-.802734375,1.29296875-1.646484375,1.8779296875-2.517578125.2041015625-.8037109375.44921875-1.5791015625.7080078125-2.3544921875h-.02734375c-.1494140625,0-.27197265625-.0546875-.3671875-.177734375-.462890625-.5849609375-1.03466796875-.87109375-1.70166015625-.87109375-.39453125,0-.76220703125.123046875-1.1162109375.3544921875-.6259765625.435546875-1.0888671875.9931640625-1.40185546875,1.66015625-.31298828125.6806640625-.5712890625,1.375-.77587890625,2.0830078125-.27197265625.87109375-.47607421875,1.7548828125-.6259765625,2.6669921875l-.04052734375.2041015625c-.109375.6396484375-.16357421875,1.1162109375-.16357421875,1.45703125l.02734375.3671875c.013671875.2314453125.12255859375.33984375.31298828125.33984375.50341796875,0,1.38818359375-.81640625,2.654296875-2.44921875Z"/>
    <path d="M89.04443359375,103.443508886642121c-.857421875-.3125-1.49755859375-.802734375-1.90576171875-1.4970703125-.6669921875-1.1025390625-.99365234375-2.640625-.99365234375-4.6142578125,0-2.53125.34033203125-5.3076171875,1.03466796875-8.3291015625,1.23828125-5.4990234375,3.1982421875-10.984375,5.8935546875-16.4697265625,2.3955078125-4.845703125,4.85888671875-7.9755859375,7.404296875-9.39111328125.6396484375-.35400390625,1.306640625-.53076171875,2.00048828125-.53076171875.953125,0,1.64697265625.27197265625,2.08251953125.802734375.39501953125.4765625.58544921875,1.1298828125.58544921875,1.9326171875,0,.58544921875-.09521484375,1.1572265625-.28564453125,1.728515625-.4765625,1.40234375-1.04833984375,2.681640625-1.71533203125,3.8388671875-.6669921875,1.169921875-1.34716796875,2.2861328125-2.04150390625,3.34765625-1.37451171875,2.13671875-2.70849609375,4.0966796875-4.00146484375,5.8798828125-2.50439453125,3.443359375-4.5595703125,6.1796875-6.15234375,8.2216796875-.39453125,1.55078125-.77587890625,3.361328125-1.14306640625,5.4033203125-.2861328125,1.5654296875-.435546875,3.0078125-.462890625,4.369140625,0,.326171875.013671875.70703125.06787109375,1.142578125.0546875.44921875.20458984375.8447265625.435546875,1.1982421875.2451171875.33984375.62646484375.517578125,1.1298828125.517578125.6533203125-.013671875,1.29296875-.2314453125,1.9326171875-.6806640625.55810546875-.3955078125,1.0751953125-.8173828125,1.5517578125-1.2802734375,2.05517578125-1.8642578125,4.1650390625-4.24609375,6.3564453125-7.1455078125.09521484375-.1357421875.2177734375-.1904296875.3671875-.1904296875.09521484375,0,.17724609375.02734375.2724609375.095703125.12255859375.0810546875.1767578125.2177734375.1767578125.3671875,0,.095703125-.02734375.1767578125-.08154296875.2587890625l-2.4091796875,3.2392578125c-1.17041015625,1.5107421875-2.150390625,2.72265625-2.93994140625,3.6337890625-2.31396484375,2.8857421875-4.314453125,4.328125-6.00244140625,4.328125-.380859375,0-.76220703125-.0537109375-1.15673828125-.1767578125ZM92.71923828125,84.171047949142121c1.90576171875-2.5322265625,3.86572265625-5.36328125,5.8798828125-8.4931640625.93896484375-1.443359375,1.81005859375-2.9267578125,2.626953125-4.451171875.81640625-1.5107421875,1.4970703125-3.08984375,2.04150390625-4.72265625.13623046875-.39501953125.2041015625-.74853515625.2041015625-1.0615234375,0-.2724609375-.08154296875-.50390625-.27197265625-.6806640625-.14990234375-.10888671875-.31298828125-.14990234375-.4765625-.14990234375-.13623046875,0-.31298828125.041015625-.54443359375.13623046875s-.44921875.2451171875-.6533203125.421875c-1.265625,1.0751953125-2.3271484375,2.3408203125-3.15771484375,3.82421875-.84375,1.484375-1.59228515625,2.9814453125-2.24560546875,4.4921875l-.13623046875.28515625c-1.17041015625,2.6005859375-2.177734375,5.25390625-3.03515625,7.962890625-.36767578125,1.18359375-.72119140625,2.3681640625-1.04833984375,3.5390625l.81689453125-1.1025390625Z"/>
    <path d="M101.41748046875,101.565579199142121c-.54443359375-.5712890625-.953125-1.251953125-1.22509765625-2.0283203125-.29931640625-.857421875-.44921875-1.71484375-.44921875-2.5859375,0-2.205078125.6396484375-4.24609375,1.9326171875-6.125.39501953125-.6123046875.87109375-1.18359375,1.40185546875-1.71484375,1.23876953125-1.197265625,2.49072265625-1.783203125,3.7431640625-1.783203125.2451171875,0,.6669921875.041015625,1.265625.150390625.61279296875.1083984375,1.1708984375.6396484375,1.70166015625,1.578125.2314453125.50390625.34033203125.994140625.34033203125,1.45703125,0,.76171875-.32666015625,1.5244140625-.97998046875,2.2998046875-.7216796875.7763671875-1.5791015625,1.306640625-2.55908203125,1.5927734375-.99365234375.28515625-1.9873046875.490234375-3.0078125.5986328125h-.0546875c-.12255859375.02734375-.3671875.7080078125-.73486328125,2.0556640625l-.013671875.0537109375c-.1494140625.517578125-.2177734375,1.0615234375-.2177734375,1.6064453125,0,.76171875.16357421875,1.361328125.50390625,1.796875.33984375.44921875.81640625.6669921875,1.4287109375.6669921875.7216796875,0,1.41552734375-.1904296875,2.06884765625-.572265625,1.388671875-.802734375,2.76318359375-1.9736328125,4.11083984375-3.51171875,1.3203125-1.5107421875,2.3271484375-2.7490234375,3.0078125-3.7421875l1.0751953125-1.498046875c.09521484375-.1220703125.2041015625-.1767578125.35400390625-.1767578125.08154296875,0,.1767578125.013671875.25830078125.068359375.12255859375.1083984375.17724609375.2314453125.17724609375.353515625,0,.095703125-.02734375.177734375-.08154296875.2587890625l-1.0751953125,1.4970703125c-.12255859375.150390625-.2314453125.3134765625-.35400390625.490234375-2.51806640625,3.580078125-4.72314453125,6.015625-6.587890625,7.322265625-1.0615234375.7353515625-2.109375,1.1162109375-3.15771484375,1.1162109375-1.15673828125,0-2.123046875-.408203125-2.87158203125-1.224609375ZM105.228515625,93.576321386642121c.93896484375-.3271484375,1.6875-.857421875,2.27294921875-1.6201171875.29931640625-.380859375.44921875-.7490234375.44921875-1.0751953125,0-.2451171875-.10888671875-.44921875-.34033203125-.6396484375-.14990234375-.095703125-.2861328125-.1357421875-.435546875-.1357421875-.2998046875,0-.6396484375.2041015625-1.00732421875.5986328125-.80322265625.87109375-1.4970703125,1.9052734375-2.09619140625,3.1298828125.2861328125-.013671875.6806640625-.1083984375,1.1572265625-.2578125Z"/>
    <path d="M129.30615234375,113.256985449142121c-.1630859375-.1494140625-.25830078125-.33984375-.28564453125-.5712890625l-.041015625-.5859375c-.06787109375-.6796875-.09521484375-1.578125-.09521484375-2.6806640625,0-3.8115234375.36767578125-8.9560546875,1.0888671875-15.4208984375l-.96630859375.0400390625c-.34033203125.2587890625-.6806640625.50390625-1.0478515625.7626953125-.857421875.6259765625-1.6064453125.939453125-2.24609375.939453125-.68017578125,0-1.17041015625-.2177734375-1.4697265625-.6396484375-.14990234375-.2177734375-.2314453125-.4765625-.2314453125-.7626953125,0-.1220703125.013671875-.2451171875.041015625-.380859375.10888671875-.462890625.32666015625-.830078125.6396484375-1.0888671875l.06787109375-.0546875c.77587890625-.5576171875,1.796875-.912109375,3.08984375-1.0751953125l.08154296875-.068359375c.884765625-.70703125,1.755859375-1.4423828125,2.61328125-2.19140625l.041015625-.33984375c.6259765625-4.46484375,1.15673828125-7.921875,1.59228515625-10.37109375.50341796875-2.8994140625,1.02099609375-5.5126953125,1.5517578125-7.826171875.27197265625-1.2529296875.55810546875-2.3828125.830078125-3.4033203125.44921875-1.7421875.99365234375-2.88525390625,1.64697265625-3.4296875.1904296875-.16357421875.408203125-.2451171875.6533203125-.2451171875.29931640625,0,.6396484375.13623046875,1.0205078125.39453125.3271484375.2724609375.53125.61279296875.61328125,1.03466796875.0537109375.29931640625.0810546875.58544921875.0810546875.87109375,0,.2314453125-.013671875.408203125-.02734375.50341796875v.0546875c0,.28564453125-.0673828125.5439453125-.1904296875.7890625-.0546875.08203125-.2587890625.2177734375-.6123046875.421875-.1904296875.109375-.2861328125.1640625-.2861328125.1904296875-.06787109375.2724609375-.1357421875.544921875-.1904296875.8173828125-.47607421875,1.9873046875-1.15673828125,5.4443359375-2.05517578125,10.37109375-.74853515625,4.1513671875-1.17041015625,6.533203125-1.23876953125,7.1318359375,7.10546875-6.505859375,11.4609375-10.466796875,13.0390625-11.8818359375,3.048828125-2.736328125,5.5810546875-4.859375,7.595703125-6.3564453125,1.591796875-1.19775390625,2.830078125-1.79638671875,3.728515625-1.79638671875.1640625,0,.408203125.02685546875.7490234375.08154296875.33984375.06787109375.6533203125.34033203125.9658203125.830078125l.041015625.0546875c.150390625.2724609375.2177734375.5302734375.2177734375.802734375,0,.13671875-.0400390625.3408203125-.1083984375.6123046875-.068359375.2724609375-.2998046875.53125-.6806640625.7626953125-.2587890625.1357421875-.517578125.2041015625-.7763671875.2041015625-.1904296875,0-.380859375-.041015625-.5712890625-.109375-1.4423828125.6806640625-4.5048828125,3.048828125-9.201171875,7.1328125-2.3134765625,2.0009765625-4.8447265625,4.21875-7.6083984375,6.6826171875-3.7421875,3.3212890625-6.4375,5.689453125-8.08447265625,7.0908203125l-.2041015625,1.34765625c2.599609375.4765625,4.98193359375,1.34765625,7.14599609375,2.640625,2.2998046875,1.388671875,4.21875,3.021484375,5.7841796875,4.88671875,1.5517578125,1.8779296875,2.7763671875,3.76953125,3.6748046875,5.662109375.857421875,1.7822265625,1.837890625,3.1845703125,2.9130859375,4.232421875,1.1162109375,1.021484375,2.19140625,1.6611328125,3.2255859375,1.892578125.5576171875.1357421875,1.1435546875.2177734375,1.7421875.2177734375.2998046875,0,.6943359375-.041015625,1.2109375-.095703125l.490234375-.0546875c.2451171875,0,.44921875.08203125.6259765625.2587890625.1630859375.1767578125.2451171875.380859375.2451171875.6259765625,0,.2314453125-.08203125.435546875-.2451171875.6123046875-.1767578125.177734375-.380859375.2587890625-.6259765625.2587890625l-.2451171875.041015625c-.5166015625.095703125-1.0751953125.1357421875-1.66015625.1357421875h-.5712890625c-.2998046875-.013671875-.7763671875-.0947265625-1.416015625-.2451171875-1.34765625-.298828125-2.6953125-1.0615234375-4.0693359375-2.2724609375-1.3203125-1.251953125-2.4501953125-2.8173828125-3.3896484375-4.708984375-.87109375-1.755859375-2.02734375-3.484375-3.484375-5.1865234375-1.4560546875-1.6875-3.2255859375-3.1435546875-5.3076171875-4.35546875-1.96044921875-1.1025390625-4.09716796875-1.8505859375-6.3974609375-2.2177734375-.6396484375,4.177734375-1.1298828125,7.7578125-1.44287109375,10.765625-.25830078125,2.3271484375-.408203125,4.1650390625-.46240234375,5.5263671875l-.0546875,2.068359375c0,.2451171875-.08154296875.44921875-.2314453125.6123046875-.1630859375.177734375-.3671875.2724609375-.6259765625.2861328125-.2314453125,0-.435546875-.08203125-.59912109375-.2314453125Z"/>
    <path d="M155.0322265625,102.613430761642121c0-1.755859375.2451171875-4.66796875.748046875-8.724609375.2451171875-2.0009765625.462890625-3.5791015625.6533203125-4.736328125l.095703125-.572265625c.041015625-.3125.08203125-.5576171875.1494140625-.748046875.1904296875-.44921875.6669921875-.6806640625,1.416015625-.6806640625.39453125,0,.76171875.08203125,1.1298828125.2587890625.4892578125.2314453125.775390625.5576171875.84375.9931640625-.013671875.1904296875-.041015625.435546875-.109375.7353515625-.041015625.1767578125-.068359375.3671875-.0947265625.5712890625-.19140625,1.1435546875-.462890625,2.66796875-.8310546875,4.5732421875l.1640625-.408203125c.4755859375-1.251953125.81640625-2.109375,1.0205078125-2.572265625.5576171875-1.306640625,1.2109375-2.232421875,1.9326171875-2.7900390625.50390625-.380859375,1.0205078125-.5849609375,1.5517578125-.5849609375.3671875,0,.7216796875.1220703125,1.0751953125.33984375.33984375.2314453125.6533203125.5576171875.912109375.9931640625s.435546875.87109375.5576171875,1.3203125c.1630859375.6669921875.3681640625,1.2119140625.5986328125,1.6201171875.2861328125.517578125.7763671875.76171875,1.470703125.76171875.92578125,0,1.9326171875-.298828125,3.03515625-.9111328125l.408203125-.2314453125c.068359375-.0546875.1494140625-.068359375.2177734375-.068359375.02734375,0,.068359375,0,.1220703125.013671875.068359375.013671875.123046875.0546875.177734375.1357421875.0537109375.08203125.0810546875.150390625.0810546875.2177734375,0,.123046875-.0673828125.2314453125-.1767578125.3134765625-.013671875.013671875-.02734375.02734375-.041015625.02734375-.013671875.013671875-.1767578125.0810546875-.462890625.2177734375-.6669921875.3671875-1.3740234375.6806640625-2.123046875.9658203125-.6123046875.2177734375-1.224609375.3271484375-1.8505859375.3271484375-.8447265625,0-1.5927734375-.2587890625-2.24609375-.8037109375-.7216796875-.5712890625-1.279296875-1.169921875-1.6611328125-1.7822265625-.421875-.6669921875-.748046875-.994140625-1.0068359375-.994140625-.1904296875,0-.435546875.2314453125-.748046875.6943359375-1.1025390625,1.5927734375-2.1240234375,3.90625-3.048828125,6.9140625-.3818359375,1.2119140625-.61328125,2.328125-.6806640625,3.3212890625-.02734375.421875-.08203125.857421875-.177734375,1.306640625-.216796875,1.0341796875-.734375,1.5791015625-1.578125,1.6064453125-1.021484375-.02734375-1.5244140625-.572265625-1.5244140625-1.6201171875Z"/>
    <path d="M172.359375,101.565579199142121c-.544921875-.5712890625-.953125-1.251953125-1.2255859375-2.0283203125-.298828125-.857421875-.4482421875-1.71484375-.4482421875-2.5859375,0-2.205078125.6396484375-4.24609375,1.9326171875-6.125.39453125-.6123046875.87109375-1.18359375,1.4013671875-1.71484375,1.23828125-1.197265625,2.4912109375-1.783203125,3.7431640625-1.783203125.2451171875,0,.6669921875.041015625,1.265625.150390625.6123046875.1083984375,1.1708984375.6396484375,1.701171875,1.578125.2314453125.50390625.3408203125.994140625.3408203125,1.45703125,0,.76171875-.3271484375,1.5244140625-.98046875,2.2998046875-.720703125.7763671875-1.578125,1.306640625-2.55859375,1.5927734375-.9931640625.28515625-1.9873046875.490234375-3.0078125.5986328125h-.0546875c-.1220703125.02734375-.3671875.7080078125-.734375,2.0556640625l-.013671875.0537109375c-.150390625.517578125-.2177734375,1.0615234375-.2177734375,1.6064453125,0,.76171875.1630859375,1.361328125.5029296875,1.796875.3408203125.44921875.81640625.6669921875,1.4296875.6669921875.720703125,0,1.4150390625-.1904296875,2.068359375-.572265625,1.388671875-.802734375,2.763671875-1.9736328125,4.1103515625-3.51171875,1.3203125-1.5107421875,2.328125-2.7490234375,3.0087890625-3.7421875l1.0751953125-1.498046875c.0947265625-.1220703125.2041015625-.1767578125.353515625-.1767578125.08203125,0,.1767578125.013671875.2587890625.068359375.1220703125.1083984375.1767578125.2314453125.1767578125.353515625,0,.095703125-.02734375.177734375-.08203125.2587890625l-1.0751953125,1.4970703125c-.1220703125.150390625-.2314453125.3134765625-.353515625.490234375-2.5185546875,3.580078125-4.72265625,6.015625-6.587890625,7.322265625-1.0615234375.7353515625-2.109375,1.1162109375-3.1572265625,1.1162109375-1.1572265625,0-2.1240234375-.408203125-2.8720703125-1.224609375ZM176.169921875,93.576321386642121c.939453125-.3271484375,1.6884765625-.857421875,2.2734375-1.6201171875.298828125-.380859375.44921875-.7490234375.44921875-1.0751953125,0-.2451171875-.109375-.44921875-.3408203125-.6396484375-.1494140625-.095703125-.28515625-.1357421875-.435546875-.1357421875-.298828125,0-.6396484375.2041015625-1.0068359375.5986328125-.802734375.87109375-1.4970703125,1.9052734375-2.095703125,3.1298828125.28515625-.013671875.6796875-.1083984375,1.15625-.2578125Z"/>
    <path d="M208.2919921875,73.486477636642121c.830078125-3.7568359375,1.4560546875-6.220703125,1.8779296875-7.404296875.33984375-.912109375.884765625-1.44287109375,1.66015625-1.5654296875.50390625,0,.92578125.12255859375,1.2529296875.380859375.326171875.2587890625.5166015625.61279296875.5849609375,1.07568359375,0,.50341796875-.123046875.89794921875-.353515625,1.21142578125l-.462890625,1.4697265625c-.3408203125,1.1572265625-.953125,3.45703125-1.810546875,6.9140625,6.2197265625-.3671875,10.9970703125-.5439453125,14.359375-.5439453125,2.068359375,0,3.40234375.0537109375,4.001953125.1494140625.857421875.02734375,1.4287109375.2041015625,1.728515625.517578125.0947265625.0947265625.1357421875.2177734375.1357421875.3671875,0,.0546875-.013671875.1220703125-.02734375.1904296875l-.1630859375.2724609375c-.08203125.0947265625-.1904296875.1357421875-.33984375.1357421875-.095703125,0-.19140625-.041015625-.2724609375-.1220703125-.095703125-.08203125-.13671875-.1767578125-.150390625-.2998046875-.5029296875-.1494140625-1.591796875-.2314453125-3.2802734375-.2314453125-3.6064453125,0-9.037109375.2861328125-16.3056640625.87109375-1.2109375,5.1591796875-2.2451171875,9.9765625-3.1025390625,14.482421875-1.2666015625,6.546875-2.1240234375,12.3173828125-2.599609375,17.298828125-.123046875,1.388671875-.177734375,2.5859375-.177734375,3.607421875,0,.748046875.02734375,1.3876953125.095703125,1.9326171875.095703125.6259765625.1767578125.9931640625.2451171875,1.1025390625.380859375.326171875.5712890625.6669921875.5712890625,1.0068359375,0,.6123046875-.33984375,1.0205078125-1.0068359375,1.2392578125-.123046875.0400390625-.2451171875.0537109375-.3681640625.0537109375-.3671875,0-.734375-.1767578125-1.115234375-.5166015625-.3271484375-.3544921875-.55859375-.7490234375-.6943359375-1.1982421875-.2587890625-.830078125-.380859375-2.068359375-.380859375-3.7158203125,0-1.1025390625.0537109375-2.3408203125.1767578125-3.7294921875.44921875-5.130859375,1.29296875-10.9833984375,2.50390625-17.5849609375l.08203125-.50390625c.5986328125-3.29296875,1.251953125-6.7509765625,1.9873046875-10.3984375-1.34765625,3.607421875-2.763671875,7.064453125-4.2197265625,10.37109375-.5849609375,1.375-1.197265625,2.736328125-1.8642578125,4.083984375s-1.443359375,2.626953125-2.30078125,3.82421875c-1.0615234375,1.5107421875-2.19140625,2.328125-3.40234375,2.4228515625h-.08203125c-.5302734375,0-.9521484375-.1630859375-1.29296875-.490234375-.33984375-.3125-.5986328125-.720703125-.76171875-1.224609375-.1767578125-.5576171875-.2587890625-1.1435546875-.2587890625-1.76953125,0-.2587890625.013671875-.5302734375.02734375-.7890625v-.2451171875c0-.44921875.041015625-.7353515625.1083984375-.84375l-.2724609375.39453125c-.734375,1.0888671875-1.5234375,2.177734375-2.3544921875,3.2802734375-.87109375,1.306640625-1.7421875,1.9599609375-2.61328125,1.9599609375-.1767578125,0-.353515625-.02734375-.5439453125-.068359375-1.021484375-.2861328125-1.76953125-1.1435546875-2.21875-2.544921875-.2861328125-.884765625-.435546875-1.837890625-.435546875-2.8447265625,0-.39453125.02734375-.7763671875.068359375-1.1572265625.2041015625-1.60546875.7890625-3.03515625,1.728515625-4.2734375,1.0068359375-1.29296875,2.3818359375-2.109375,4.1376953125-2.4501953125.2587890625-.041015625.5302734375-.068359375.7890625-.068359375.55859375,0,1.0888671875.109375,1.6201171875.3408203125.693359375.33984375,1.23828125.81640625,1.66015625,1.4287109375.1357421875-.380859375.2861328125-.76171875.435546875-1.1435546875l.1494140625-.271484375c.3681640625-.5859375.87109375-.87109375,1.5380859375-.87109375.3134765625,0,.6259765625.0810546875.92578125.2587890625.5849609375.3671875.87109375.8837890625.87109375,1.55078125,0,.2587890625-.0546875.50390625-.1494140625.7080078125-.7353515625,1.9189453125-1.1025390625,2.8994140625-1.1162109375,2.9404296875-.7353515625,1.9052734375-1.2119140625,3.2529296875-1.443359375,4.0556640625-.2578125.6943359375-.380859375,1.23828125-.380859375,1.646484375,0,.3681640625.08203125.55859375.2587890625.55859375.2177734375,0,.5712890625-.2451171875,1.0478515625-.7216796875,1.03515625-1.0205078125,2.0830078125-2.4765625,3.130859375-4.369140625.7216796875-1.306640625,1.388671875-2.599609375,2.0146484375-3.892578125,1.1025390625-2.205078125,2.095703125-4.35546875,2.98046875-6.4375.857421875-2.0419921875,1.6875-4.0830078125,2.4638671875-6.15234375-7.7041015625.6259765625-12.8486328125,1.0888671875-15.421875,1.361328125-1.646484375.1630859375-3.279296875.298828125-4.9267578125.421875-.2587890625,0-.4765625-.08203125-.6533203125-.2451171875-.1767578125-.1494140625-.2724609375-.353515625-.2724609375-.6123046875,0-.5986328125.462890625-.92578125,1.388671875-.994140625.2998046875-.013671875.775390625-.02734375,1.4150390625-.02734375.2724609375,0,1.306640625-.0673828125,3.08984375-.2041015625,2.232421875-.2041015625,7.52734375-.5576171875,15.8837890625-1.0888671875.095703125-.2177734375.1767578125-.44921875.2587890625-.6669921875l.3408203125-1.60546875ZM188.9775390625,97.836087011642121c.435546875-.3671875,1.1298828125-1.1298828125,2.0830078125-2.287109375l.5302734375-.6396484375c.6806640625-.802734375,1.306640625-1.646484375,1.892578125-2.53125.2578125-.939453125.4892578125-1.701171875.693359375-2.3134765625l.013671875-.02734375h-.02734375c-.1494140625,0-.271484375-.0546875-.3671875-.1767578125-.462890625-.572265625-1.0205078125-.857421875-1.673828125-.857421875-.55859375,0-1.0888671875.2314453125-1.5791015625.70703125-.490234375.4765625-.912109375,1.0888671875-1.265625,1.810546875-.3671875.7216796875-.6259765625,1.34765625-.7890625,1.8779296875-.177734375.572265625-.3134765625,1.2119140625-.4091796875,1.919921875-.0947265625.6533203125-.1357421875,1.23828125-.1357421875,1.755859375v.5029296875c.013671875.39453125.1357421875.5986328125.39453125.5986328125.150390625,0,.3544921875-.1083984375.6396484375-.33984375ZM205.1201171875,115.230618261642121c-.013671875-.013671875-.02734375-.02734375-.041015625-.02734375v.013671875c.013671875.013671875.041015625.013671875.0546875.02734375s.013671875.02734375.02734375.02734375l-.041015625-.041015625Z"/>
    <path d="M213.41015625,103.443508886642121c-1.0341796875-.5166015625-1.619140625-1.60546875-1.755859375-3.2666015625-.02734375-.435546875-.041015625-.84375-.041015625-1.23828125,0-.2314453125,0-.462890625.013671875-.6806640625.109375-2.4365234375.517578125-5.130859375,1.2119140625-8.0849609375.1220703125-.6123046875.353515625-1.0888671875.7080078125-1.4287109375.23046875-.2177734375.5439453125-.3271484375.9521484375-.3271484375.2041015625,0,.435546875.02734375.6806640625.08203125.6806640625.1904296875,1.0615234375.5166015625,1.1435546875.9794921875.02734375.13671875.02734375.2724609375.02734375.421875,0,.3408203125-.0546875.6943359375-.1767578125,1.0888671875-.205078125.7626953125-.462890625,1.796875-.7626953125,3.1171875-.6259765625,2.8310546875-.939453125,5.0634765625-.939453125,6.6826171875,0,.3408203125.02734375.5859375.068359375.7353515625.041015625.1630859375.095703125.2587890625.1630859375.2861328125.0546875.041015625.109375.0546875.1640625.0546875.244140625,0,.748046875-.3408203125,1.5234375-1.0078125l.1640625-.1357421875c.6533203125-.55859375,1.265625-1.1572265625,1.8369140625-1.783203125,1.728515625-1.9189453125,3.2392578125-3.865234375,4.5458984375-5.8115234375l.953125-1.443359375c.095703125-.1357421875.2177734375-.2041015625.3671875-.2041015625.08203125,0,.1640625.02734375.2451171875.08203125.13671875.0810546875.1904296875.2041015625.1904296875.33984375,0,.095703125-.013671875.1767578125-.0673828125.2587890625l-.50390625.7216796875c-1.8779296875,2.7626953125-3.51171875,5.0361328125-4.88671875,6.7919921875-2.041015625,2.6396484375-3.6884765625,3.9599609375-4.9130859375,3.9599609375-.2998046875,0-.5986328125-.0673828125-.912109375-.1904296875ZM214.8935546875,85.505032324142121c-.2314453125-.2041015625-.353515625-.44921875-.353515625-.7490234375l.041015625-.6943359375c.041015625-.33984375.2041015625-.6123046875.490234375-.84375.3125-.2587890625.6669921875-.380859375,1.0751953125-.380859375.3671875,0,.6669921875.0947265625.8984375.2998046875.23046875.1904296875.353515625.435546875.353515625.734375l-.0546875.7080078125c-.02734375.2587890625-.1357421875.50390625-.33984375.7080078125-.2998046875.3125-.6806640625.4892578125-1.1572265625.5166015625-.39453125,0-.7216796875-.0947265625-.953125-.298828125Z"/>
    <path d="M226.013671875,102.001126074142121c-.8984375-.462890625-1.5244140625-1.4423828125-1.8642578125-2.9267578125-.2451171875-1.0478515625-.3818359375-2.0546875-.408203125-3.0078125-.013671875-.490234375-.02734375-.9794921875-.02734375-1.4423828125,0-2.4775390625.28515625-4.859375.87109375-7.1318359375l.0400390625-.19140625c.041015625-.326171875.205078125-.5712890625.4765625-.720703125.2724609375-.1640625.61328125-.2314453125.994140625-.2314453125.0546875,0,.2041015625,0,.462890625.013671875.2578125.013671875.5712890625.1357421875.9384765625.3671875.3955078125.2587890625.5859375.6123046875.5859375,1.0478515625,0,.08203125-.013671875.1767578125-.041015625.2724609375-.08203125.2998046875-.3134765625,1.4560546875-.7080078125,3.470703125-.326171875,1.646484375-.5712890625,3.1708984375-.748046875,4.6005859375-.068359375.517578125-.109375,1.0341796875-.109375,1.5517578125,0,.353515625.02734375.720703125.0546875,1.0751953125.013671875.02734375.013671875.0546875.013671875.0947265625.02734375.2314453125.0810546875.50390625.1630859375.8037109375.08203125.298828125.2314453125.4892578125.462890625.5576171875h.0673828125c.2314453125,0,.462890625-.1357421875.7080078125-.421875.150390625-.1767578125.39453125-.5302734375.7353515625-1.0341796875.5439453125-.7900390625.92578125-1.416015625,1.1435546875-1.8515625.802734375-1.3740234375,1.728515625-3.1298828125,2.7900390625-5.240234375.435546875-.857421875.81640625-1.55078125,1.1298828125-2.109375.3125-.5576171875.5986328125-.92578125.84375-1.1162109375l.1630859375-.0810546875c.0546875-.02734375.109375-.041015625.1630859375-.041015625.0546875,0,.123046875.02734375.2041015625.0546875.150390625.0673828125.2314453125.1904296875.2314453125.380859375s-.0673828125.326171875-.1904296875.39453125c-.1220703125.068359375-.1767578125.1083984375-.1904296875.1220703125-.39453125.3955078125-1.0888671875,1.6474609375-2.095703125,3.7568359375-.994140625,2.109375-1.6884765625,3.580078125-2.0966796875,4.396484375-.39453125.81640625-.857421875,1.6328125-1.3876953125,2.4501953125-.150390625.298828125-.44921875.720703125-.884765625,1.279296875-.3134765625.39453125-.6806640625.6943359375-1.1025390625.8984375-.1904296875.0947265625-.39453125.1357421875-.6123046875.1357421875-.2451171875,0-.50390625-.0546875-.7763671875-.1767578125Z"/>
    <path d="M237.06640625,101.565579199142121c-.544921875-.5712890625-.953125-1.251953125-1.2255859375-2.0283203125-.298828125-.857421875-.4482421875-1.71484375-.4482421875-2.5859375,0-2.205078125.6396484375-4.24609375,1.9326171875-6.125.39453125-.6123046875.87109375-1.18359375,1.4013671875-1.71484375,1.23828125-1.197265625,2.4912109375-1.783203125,3.7431640625-1.783203125.2451171875,0,.6669921875.041015625,1.265625.150390625.6123046875.1083984375,1.1708984375.6396484375,1.701171875,1.578125.2314453125.50390625.3408203125.994140625.3408203125,1.45703125,0,.76171875-.3271484375,1.5244140625-.98046875,2.2998046875-.720703125.7763671875-1.578125,1.306640625-2.55859375,1.5927734375-.9931640625.28515625-1.9873046875.490234375-3.0078125.5986328125h-.0546875c-.1220703125.02734375-.3671875.7080078125-.734375,2.0556640625l-.013671875.0537109375c-.150390625.517578125-.2177734375,1.0615234375-.2177734375,1.6064453125,0,.76171875.1630859375,1.361328125.5029296875,1.796875.3408203125.44921875.81640625.6669921875,1.4296875.6669921875.720703125,0,1.4150390625-.1904296875,2.068359375-.572265625,1.388671875-.802734375,2.763671875-1.9736328125,4.1103515625-3.51171875,1.3203125-1.5107421875,2.328125-2.7490234375,3.0087890625-3.7421875l1.0751953125-1.498046875c.0947265625-.1220703125.2041015625-.1767578125.353515625-.1767578125.08203125,0,.1767578125.013671875.2587890625.068359375.1220703125.1083984375.1767578125.2314453125.1767578125.353515625,0,.095703125-.02734375.177734375-.08203125.2587890625l-1.0751953125,1.4970703125c-.1220703125.150390625-.2314453125.3134765625-.353515625.490234375-2.5185546875,3.580078125-4.72265625,6.015625-6.587890625,7.322265625-1.0615234375.7353515625-2.109375,1.1162109375-3.1572265625,1.1162109375-1.1572265625,0-2.1240234375-.408203125-2.8720703125-1.224609375ZM240.876953125,93.576321386642121c.939453125-.3271484375,1.6884765625-.857421875,2.2734375-1.6201171875.298828125-.380859375.44921875-.7490234375.44921875-1.0751953125,0-.2451171875-.109375-.44921875-.3408203125-.6396484375-.1494140625-.095703125-.28515625-.1357421875-.435546875-.1357421875-.298828125,0-.6396484375.2041015625-1.0068359375.5986328125-.802734375.87109375-1.4970703125,1.9052734375-2.095703125,3.1298828125.28515625-.013671875.6796875-.1083984375,1.15625-.2578125Z"/>
    <path d="M249.79296875,110.984524511642121c-.1220703125-.3681640625-.1904296875-.7353515625-.1904296875-1.1162109375,0-1.34765625.7490234375-2.9951171875,2.259765625-4.94140625,1.1025390625-1.5107421875,2.2587890625-2.7900390625,3.470703125-3.837890625-.2861328125-.4765625-.6259765625-.8984375-1.021484375-1.23828125-.408203125-.3408203125-.84375-.6669921875-1.29296875-.98046875-.734375-.462890625-1.3876953125-1.0205078125-1.9599609375-1.673828125-.802734375-1.0478515625-1.2109375-2.19140625-1.2109375-3.443359375,0-1.0888671875.2861328125-2.150390625.857421875-3.158203125,1.197265625-1.9599609375,2.8720703125-3.1708984375,5.0224609375-3.6201171875.44921875-.095703125.884765625-.1494140625,1.3203125-.1494140625.912109375,0,1.8095703125.2177734375,2.66796875.6533203125.5302734375.3125.9794921875.76171875,1.3193359375,1.3603515625.3134765625.55859375.462890625,1.1162109375.462890625,1.7021484375v.1357421875c-.0537109375.6259765625-.2314453125,1.224609375-.5029296875,1.76953125l-.13671875.2177734375c-.1630859375.2451171875-.39453125.3671875-.6943359375.3671875-.1494140625,0-.298828125-.041015625-.4482421875-.1220703125-.2451171875-.177734375-.3681640625-.4091796875-.3681640625-.6943359375,0-.150390625.041015625-.2998046875.13671875-.44921875l.0810546875-.1494140625c.1630859375-.2998046875.2451171875-.599609375.2451171875-.92578125,0-.408203125-.1494140625-.7353515625-.462890625-.966796875-.435546875-.3125-.9384765625-.462890625-1.5380859375-.462890625-.5712890625,0-1.15625.1640625-1.755859375.4765625-1.3876953125.7490234375-2.3818359375,1.8515625-2.994140625,3.3212890625-.1630859375.44921875-.2451171875.8984375-.2451171875,1.333984375,0,.2724609375.0546875.6533203125.1767578125,1.1298828125.123046875.4755859375.435546875,1.0068359375.966796875,1.564453125.5849609375.572265625,1.224609375,1.0751953125,1.9189453125,1.498046875.490234375.3125.966796875.6396484375,1.416015625,1.0068359375q0,.013671875.013671875.013671875,0,.013671875.013671875.02734375l1.591796875-1.0478515625c3.7841796875-2.4091796875,6.7236328125-4.5869140625,8.8203125-6.5205078125l.5439453125-.4892578125c.095703125-.095703125.2177734375-.13671875.3408203125-.13671875.1357421875,0,.2451171875.0546875.33984375.150390625.095703125.0947265625.13671875.2041015625.13671875.3125v.123046875c0,.0673828125-.0546875.1494140625-.150390625.2451171875l-.5439453125.5166015625c-2.0556640625,1.9462890625-4.6005859375,3.974609375-7.6494140625,6.056640625-.830078125.55859375-1.6875,1.1435546875-2.572265625,1.76953125.7890625,1.021484375,1.18359375,2.19140625,1.18359375,3.498046875,0,.2587890625-.02734375.6123046875-.0947265625,1.0751953125-.123046875,1.03515625-.55859375,2.0966796875-1.2802734375,3.185546875-1.4013671875,2.123046875-3.1572265625,3.443359375-5.2666015625,3.947265625-.2041015625.0400390625-.421875.0673828125-.6259765625.0673828125-1.1435546875,0-1.919921875-.4765625-2.30078125-1.4013671875ZM252.841796875,110.031399511642121c.6943359375-.5712890625,1.265625-1.251953125,1.728515625-2.0556640625.92578125-1.578125,1.388671875-3.0751953125,1.388671875-4.4912109375,0-.326171875-.02734375-.6533203125-.095703125-.9931640625-.353515625.3671875-.70703125.734375-1.0478515625,1.1162109375-1.361328125,1.537109375-2.4091796875,3.0888671875-3.130859375,4.640625-.3125.6943359375-.4619140625,1.265625-.4619140625,1.728515625v.2451171875c0,.1357421875.0810546875.2451171875.2578125.3408203125.068359375.0263671875.13671875.0400390625.2177734375.0400390625.2998046875,0,.6806640625-.1904296875,1.1435546875-.5712890625Z"/>
  </g>
  <g>
    <path d="M86.97021484375,127.552883886642121c0,1.2685546875-.994140625,2.0087890625-2.8974609375,2.0087890625h-3.6796875v-7.40234375h3.46826171875c1.7763671875,0,2.72802734375.7509765625,2.72802734375,1.9248046875,0,.76171875-.38037109375,1.322265625-.95166015625,1.62890625.79296875.2529296875,1.33251953125.876953125,1.33251953125,1.83984375ZM81.767578125,123.238430761642121v2.041015625h1.94580078125c.95166015625,0,1.49072265625-.3388671875,1.49072265625-1.015625,0-.6875-.5390625-1.025390625-1.49072265625-1.025390625h-1.94580078125ZM85.5849609375,127.415188574142121c0-.740234375-.560546875-1.068359375-1.5966796875-1.068359375h-2.220703125v2.13671875h2.220703125c1.0361328125,0,1.5966796875-.328125,1.5966796875-1.068359375Z" style="fill: #431d5d;"/>
    <path d="M94.287109375,127.848782324142121h-3.701171875l-.7294921875,1.712890625h-1.4169921875l3.33056640625-7.40234375h1.353515625l3.341796875,7.40234375h-1.43798828125l-.740234375-1.712890625ZM93.83203125,126.769680761642121l-1.3955078125-3.2353515625-1.38525390625,3.2353515625h2.78076171875Z" style="fill: #431d5d;"/>
    <path d="M98.45263671875,122.159329199142121h1.37451171875v6.2392578125h3.8701171875v1.1630859375h-5.24462890625v-7.40234375Z" style="fill: #431d5d;"/>
    <path d="M105.8330078125,122.159329199142121h1.37451171875v6.2392578125h3.8701171875v1.1630859375h-5.24462890625v-7.40234375Z" style="fill: #431d5d;"/>
    <path d="M112.54736328125,125.860501074142121c0-2.1884765625,1.69189453125-3.806640625,3.986328125-3.806640625,2.294921875,0,3.98681640625,1.607421875,3.98681640625,3.806640625s-1.69189453125,3.806640625-3.98681640625,3.806640625c-2.29443359375,0-3.986328125-1.6171875-3.986328125-3.806640625ZM119.13525390625,125.860501074142121c0-1.51171875-1.1103515625-2.6015625-2.6015625-2.6015625-1.49072265625,0-2.60107421875,1.08984375-2.60107421875,2.6015625,0,1.5126953125,1.1103515625,2.6015625,2.60107421875,2.6015625,1.4912109375,0,2.6015625-1.0888671875,2.6015625-2.6015625Z" style="fill: #431d5d;"/>
    <path d="M122.49755859375,125.860501074142121c0-2.1884765625,1.69189453125-3.806640625,3.986328125-3.806640625,2.294921875,0,3.98681640625,1.607421875,3.98681640625,3.806640625s-1.69189453125,3.806640625-3.98681640625,3.806640625c-2.29443359375,0-3.986328125-1.6171875-3.986328125-3.806640625ZM129.08544921875,125.860501074142121c0-1.51171875-1.1103515625-2.6015625-2.6015625-2.6015625-1.49072265625,0-2.60107421875,1.08984375-2.60107421875,2.6015625,0,1.5126953125,1.1103515625,2.6015625,2.60107421875,2.6015625,1.4912109375,0,2.6015625-1.0888671875,2.6015625-2.6015625Z" style="fill: #431d5d;"/>
    <path d="M139.552734375,122.159329199142121v7.40234375h-1.130859375l-4.08203125-5.0126953125v5.0126953125h-1.36376953125v-7.40234375h1.13134765625l4.08203125,5.0126953125v-5.0126953125h1.36328125Z" style="fill: #431d5d;"/>
    <path d="M146.552734375,122.159329199142121h3.2353515625c2.400390625,0,4.0400390625,1.48046875,4.0400390625,3.701171875s-1.6396484375,3.701171875-4.0400390625,3.701171875h-3.2353515625v-7.40234375ZM149.724609375,128.398587011642121c1.6494140625,0,2.7177734375-1.0048828125,2.7177734375-2.5380859375s-1.068359375-2.5380859375-2.7177734375-2.5380859375h-1.796875v5.076171875h1.796875Z" style="fill: #431d5d;"/>
    <path d="M161.884765625,128.409329199142121v1.15234375h-5.5517578125v-7.40234375h5.4033203125v1.1533203125h-4.029296875v1.923828125h3.57421875v1.1318359375h-3.57421875v2.041015625h4.177734375Z" style="fill: #431d5d;"/>
    <path d="M163.9033203125,125.860501074142121c0-2.2099609375,1.6923828125-3.806640625,3.9658203125-3.806640625,1.205078125,0,2.2421875.43359375,2.9287109375,1.2373046875l-.8876953125.8349609375c-.5390625-.5810546875-1.2060546875-.8671875-1.9775390625-.8671875-1.533203125,0-2.6435546875,1.0791015625-2.6435546875,2.6015625s1.1103515625,2.6015625,2.6435546875,2.6015625c.771484375,0,1.4384765625-.28515625,1.9775390625-.8779296875l.8876953125.845703125c-.6865234375.8037109375-1.7236328125,1.2373046875-2.939453125,1.2373046875-2.2626953125,0-3.955078125-1.5966796875-3.955078125-3.806640625Z" style="fill: #431d5d;"/>
    <path d="M172.478515625,125.860501074142121c0-2.1884765625,1.6923828125-3.806640625,3.9873046875-3.806640625,2.2939453125,0,3.986328125,1.607421875,3.986328125,3.806640625s-1.6923828125,3.806640625-3.986328125,3.806640625c-2.294921875,0-3.9873046875-1.6171875-3.9873046875-3.806640625ZM179.06640625,125.860501074142121c0-1.51171875-1.1103515625-2.6015625-2.6005859375-2.6015625-1.4912109375,0-2.6015625,1.08984375-2.6015625,2.6015625,0,1.5126953125,1.1103515625,2.6015625,2.6015625,2.6015625,1.490234375,0,2.6005859375-1.0888671875,2.6005859375-2.6015625Z" style="fill: #431d5d;"/>
    <path d="M187.80078125,129.561672949142121l-1.51171875-2.16796875c-.095703125.0107421875-.1904296875.0107421875-.2861328125.0107421875h-1.6708984375v2.1572265625h-1.3740234375v-7.40234375h3.044921875c1.9462890625,0,3.1513671875.994140625,3.1513671875,2.6337890625,0,1.1201171875-.5712890625,1.9453125-1.5751953125,2.3369140625l1.7021484375,2.431640625h-1.48046875ZM185.939453125,123.322415136642121h-1.607421875v2.9501953125h1.607421875c1.2060546875,0,1.830078125-.5498046875,1.830078125-1.4794921875,0-.9306640625-.6240234375-1.470703125-1.830078125-1.470703125Z" style="fill: #431d5d;"/>
  </g>
  <g>
    <g>
      <path d="M48.217120300240822,29.507003420389083c-5.505078712572868-3.804137666430506-10.577116031337937-1.493154272424363-10.930907130910782-1.324009577716424-.358947357377474.15792214521025-5.418382669425228,2.496272240940925-6.124092630924679,9.150565051259946-.461862558159737,4.35515296583344,2.203085766269396,10.951686426354172,9.455766762846906,14.747241328859673,1.70927013499022.894521379672369,5.294466368794929,2.741187955693022,7.22362063993296,2.755984462140987.424461012790744.003263814213824.874056171915072-.121881487631981,1.161437958170609-.220362661146282l.105126514284166.229060485813534c.072982788648005.159086783532985.216825718902328.259223858438418.369488271899172.278738394842549l-.194978152630028,1.032077504494737s.325678538877582-.101285880462456.927906712317963.006910861162396c.116878590958549.020996381170335.512480778882491-.373038720485965.502579757088824-.553318690607739l-.838988858274206-.672096682674237c.080948309187079-.127793809348077.096826810517086-.299018813615476.02509234943318-.455348813470664l-.111030961837969-.241897377122768c.255723506128561-.158250326108828.583516092961872-.392247208191293.822532095712631-.67451965273176,1.246744275777928-1.472227302147076,2.184557240510003-5.394527417931386,2.620987739442171-7.273700143273345,1.851781616956032-7.973644238194538-1.411511553456876-14.295552108178526-5.014541066550919-16.7853244898306Z" style="fill: #31ac9a;"/>
      <g style="opacity: .3;">
        <path d="M37.040485263655683,47.737248136299968c.913171282284566-.313371276178259,2.75138454719945-1.320434211276734,3.607285050803512-1.751161372107163,0,0,2.145865439266345,2.014128574254755,3.56081407603142,2.712564526787901.040106585333888.019773318154876-1.220755039534197,3.278457393906137-1.220755039534197,3.278457393906137-3.204229716109694-1.460293950959567-5.973159449401464-4.2311091259553-5.947344087300735-4.239860548586876Z" style="fill: url(#linear-gradient);"/>
      </g>
      <g style="opacity: .3;">
        <path d="M32.910977048760287,38.400523849496494s3.595520508642949.084610635772151,5.380285702490255.42447079651356c.051430154099762.009805890565985-.091390561746266-4.081443089597087,2.830925685057082-6.155888942945239l-4.243248268691787-2.519615810449068c-.81220567697801.631107371758844-2.17185527759284,2.150777602167182-2.816456868915338,3.54909280791253-.698241376253463,1.399086554190035-1.188813872739956,3.508725900554055-1.151506249940212,4.701941148968217Z" style="fill: url(#radial-gradient);"/>
      </g>
      <path d="M38.03233284245016,40.072038798840367l-4.784992406497622-.240697633505079c-.044338890896142.004715924580523.39181685935273,3.822883257095782,3.067689759982386,6.773048647830365.04324097521021.044947599767511.096987452675421.047472901227593.137699323166089.030509752225043,1.481886985002348-.596774931316759,3.568730724812667-1.637741716425808,3.597398437847005-1.654778233166326.028708248231851-.016997595145767-2.200362897264313-3.065463579235256-2.017795114497858-4.908082533384004Z" style="fill: url(#linear-gradient-2); opacity: .3;"/>
    </g>
    <path d="M55.974256533798325,68.892931137533196l-.206636659730975.004196338461043-.000245690794145-.012098338913347c-.001728879387883-.08513371002482-.003457758773948-.170267420051459-.017606398119824-.267326493831206l-.005432328955067-.267499468989627c-.319995172849303-6.769806153173704-.942662155236576-16.465441308264417-2.034250282097673-25.287687921122597l-.00049439619761-.024345123704734c-.144791184368842-1.140638503632545-.301507732485334-2.268857247314372-.45787833027498-3.372727852682146-.212915461496777-1.504285491557312-.449334192881906-2.959309101956933-.696692510216963-4.353371150874409l-.000247198099714-.012172561852822c-.095431256115262-.509000665133499-.178197061468381-.993977627599634-.273282367259526-1.478630154419079-.012419759944351-.011925363751288-.000741594296414-.036517685554827-.000988792396129-.04869024740583-.568193693733519-2.823016178147554-1.190830582671879-5.328680872336008-1.912895957366345-7.333565308272227-.03898665194265-.120835578344668-.089900174934883-.229325619677184-.128886826863891-.35016119802458-.013159846947929-.048368826371188.009949286260962-.109726031829268.058146644775661-.134985724990656.060615611168032-.013408552347755.10980025477329.009947778961759.135132663567674.058069407233234.051257966000776.132763956709823.09034337016783.265775111518451.141751289358581.39861027655661.644830650510812,1.799582518921852,1.225417265412034,4.026239539016387,1.725984092828185,6.51010229881922.228614680958344,1.07804832228976.434169922354158,2.205275258967049.62824450255539,3.381445670372159l.000740086991755.036443462617171c.234198470397132,1.345693222548107.457704552933137,2.764520568430271.645038900231157,4.208437646921993,0,0-.011925363759474.012419759952536.000494396198519.024345123704734.069258500785509.412185774842328.126838835923991.848963871489104.184173480269237,1.273643629222533l.00049288889204.024270900766169c1.195242804461486,9.136535982010173,1.842181489795621,19.427711463305968,2.192547263727647,26.501043389441293l.004199353072181.206785105605377c.002221768279924.109404610791898.016370407624891.206463684569826.018592175904814.315868295361724Z"/>
    <g>
      <path d="M73.704162540388097,28.541573193565455c-2.190890203964045-6.301874521168429-7.632875774437707-7.42778000852195-8.017162124188872-7.499902742676568-.381829278441728-.084215299717471-5.829854074542709-1.180666497232778-10.314777647175106,3.758917736379772-2.935352210108249,3.232873424609352-4.673755230393908,10.110081190022356-1.071479697799077,17.433787798107915.848981339530837,1.726044511826331,2.647139916442029,5.322518539233897,4.190879989738278,6.470038424736231.339659039625076.252476691161064.775133002331131.416403718974834,1.064358468727733.506354843004374l-.050245338456079.246205910162644c-.034885850091086.170975085482496.021930358290774.336192914521234.133289360145682.441798785112951l-.764462357640696.715748061836166s.32174692028093.110236182614244.742668687137666.551797796592837c.081706866025343.085699734996524.632011624083134.001473346873354.730137045217816-.149443049997899l-.279512986940972-1.034722764075923c.140370527774394-.05519449131225.253896119227647-.183649873983995.288201749831387-.351672062886792l.053065000040988-.260014864607911c.298954033910377.023181054471024.700469785065252.027785221868726,1.058961606948287-.058626816270589,1.869936881536887-.450882828499743,4.933515299761893-3.055252912386095,6.390899224027635-4.310617898533565,6.183822859567044-5.326661089335175,7.279069246820654-12.335121040659033,5.845179020385331-16.459649156883643Z" style="fill: url(#linear-gradient-3);"/>
      <g style="opacity: .3;">
        <path d="M53.978687434030689,36.633126737920975c.919328301749374.28533826272178,2.991418081912343.556964187832818,3.933736633935041.714215085780779,0,0,.541267602377957,2.883977945094557,1.26882549489892,4.278910377280226.020596377262336.039564979600982-2.912262439329425,1.919753729299373-2.912262439329425,1.919753729299373-1.718969679063775-3.061328949856943-2.316220376671481-6.921056906359809-2.290299689504536-6.912879192360379Z" style="fill: url(#linear-gradient-4);"/>
      </g>
      <g style="opacity: .3;">
        <path d="M56.151566913533316,26.688655527237643s2.843629114508985,2.184612760574055,4.079876476210302,3.508683525264132c.035586823138146.038147702649439,2.328970716663207-3.338322921247709,5.901786236768203-3.287511195721891l-1.931567121631815-4.525382394861481c-1.025128837516604.029760698933387-3.013840806960616.452372620765345-4.355701250827224,1.19816871724197-1.385452274136696.714885528543164-3.022022080335773,2.123846436402346-3.694394340519466,3.10604134807727Z" style="fill: url(#radial-gradient-2);"/>
      </g>
      <path d="M59.288966535581494,31.048456139315931l-3.708984467304617-3.010343992416892c-.038453272644801-.02231081435184-1.934988761755449,3.307031569653191-1.518228715081023,7.256313362267974.008326222918186.061634042869628.050106487683479.095323789439135.092882306471438.105623388844833,1.543779368567812.392050341768481,3.835929379468325.782734095986598,3.869017696639276.785917388152484.033133089065814.003222127726076.033771053165765-3.762171378344647,1.265313179274926-5.137510146848399Z" style="fill: url(#linear-gradient-5); opacity: .3;"/>
    </g>
    <path d="M59.880702976421162,50.382606784043674c-.104712368836772.233277774651469-.20893184876968.490826450069108-.301125705422237.748205164938554-.643383298616754,1.86227607147066-.79008613762926,4.225404314643129-.946344126247823,6.710353913944346-.228695592324584,3.715168364132296-.46709327282224,7.552235321946682-2.328071945578813,10.57063940540047-.058888239072985.098468039432191-.117873723077537.184834725341716-.17661200897237.283373973104972l-.012172561845546.000247198098805c-.011678165660669.02459232180081-.035776091265689.03725927985397-.060121214970422.037753676049761-.011185276754077.048863222567888-.010197991663517.097479247036972-.021136070333341.158515031458592l-.194464097871787.003949140362238c.010690880557377-.073208346271713.021876157325096-.122071568843239.020888872234536-.170687593310504.01029523658417-.085377893514305.021479006035406-.134315339022578.021479006035406-.134315339022578-.00049288889204-.02427090076344.0111852767659-.048863222567888.035283202371829-.06153018061741.01192536374856-.012419759952536.023949479732437-.012663943438383.036122041577983-.012911141537188.011926871064134-.012345537013971.024099432909679-.012592735112776.036271994768867-.012839933211581,0,0,.000245690794145.012098338913347.012418252638781.011851140816361.035530400472453-.049357618769136.058888239085718-.098468039435829.082244570393414-.147652683041088,1.861571821168582-2.981883383285094,2.099969501664418-6.81895034109948,2.340590457737562-10.546538465181584.15541914941241-2.533568638382349.313157312015392-4.945631312451951.992466655062344-6.845095455448245l-.000247198097895-.012172561851003c.080367245120215-.232783378454769.173154250196603-.45364139315825.266336899246198-.662329860619138.02311064051446-.061282982520424.083577805796267-.074688520255222.144786565387221-.051576372435193.049183136299689.023282108369131.074762743192878.083576298494336.051406411886092.132760942101413Z"/>
    <path d="M56.156844961570641,68.889223166047486l-.194760989631504.003955169584515c-.01389993392695-.08481228898745-.026912842307866-.133258352907433-.027405731199906-.157529253670873-.024099432910589.012592735109138-.048690247407649.000988792395219-.073134123325872-.010692387870222l-.111776332259979-.10725405084122c-.049677532498208-.047627232072045-.099356572301076-.095328687084475-.136960295169047-.155378693720195-1.913540163771358-1.968436354331061-2.762543126614219-4.834460238216707-3.59725051155965-7.603502285874129-.522414638645387-1.753432446221268-1.018211184356915-3.410059045983871-1.774395684366937-4.696441546699134-.151453377533471-.276711682876339-.315129010557939-.540997576579684-.502359986648116-.780524202543347-.025086718001148-.036023289357217-.026074003090798-.084639313827211.009949286260053-.109726031827449.047950160416804-.03743225501421.096739160048855-.026245470948197.121824370744434.009703595473184.187379421964579.239523611350705.36293072510216.503568336175704.514929699785171.792520774622972.756281744918851,1.298483854241567,1.264893694557031,2.979205364998052,1.787258639556967,4.74481640229078.822335811342782,2.74486386989156,1.670944637519824,5.598792429475907,3.571572152442059,7.531032519287692q.000245690793236.012098338915166.012665450751228.024023702670092s.000247198097895.012172561850093.012419759943441.011925363751288c.049679039804687.04770145501243.087184010457349.09557588518328.148885658927611.142958933769478.000247198097895.012172561851912.024938272128566.036026303969265.037358032072916.047951667720554q.012418252651514.011851140816361.024838012596774.02377650456765l.00049439619761.024345123705643q.011925363759474-.012419759950717.02409792560502-.012666958049522c.060615611167123-.013408552347755.110047452871186.022120340812762.111281936061459.082908927135577,0,0,.013654243133715.072713950074103.040468333216268.193796726516666Z"/>
    <g>
      <path d="M49.84273113526524.000018391931917c-2.616580523697849-.006996823908594-4.630555675270443,1.983980151861942-5.750737449310691,3.186870294622167-.595700211281837.63970716194126-1.25242720550068.988847482118217-1.662985533243045,1.161330957836981-.421643653102365.143297458488632-1.144675082734466.317754653638076-2.014792960939303.234314128050755-1.636137509847686-.156952390982042-4.464000909651077-.310529700327606-6.417191820944936,1.430649037087278-3.994374116284234,3.560772338335482-1.96242912496291,7.396213655640167-.816851906759439,9.268060007158056,3.569275449852285,5.832000087554661,9.547706052521789,7.134527413958494,15.089504647309695,9.245546975553225.537253001074532.204665244445096.972170385433856.251157755297754,1.31126123910326.227101817734365.084294765344566.119191773301282.203892029930103.203605355085529.336827784577508.236358062993531l-.393738172415397,1.266911813161641s.023008892836515.342331452475264,1.163365256735233.14266674931514c.311961100463122-.0545854082593.696950336568079-.394073872159424.710531063097733-.621689798819716l-.955695901170657-.964513638552489c.091151316098149-.112897994342347.138144661543265-.262656776290896.126277487530388-.418612758630843.28215804292995-.204811606975454.595339346580658-.533978723316068.877183137373322-1.073474726499626,2.746184220078248-5.256095018955421,6.35534096862375-10.196971838032368,5.156937275669407-16.928651018624805C56.217971798793769,4.232262406258087,55.193862528883983.014398454599359,49.84273113526524.000018391931917Z" style="fill: url(#linear-gradient-6);"/>
      <g style="opacity: .3;">
        <path d="M33.466736964587653,10.848649892407593s2.163903500411834.197624616735993,3.225878295826078.475256923092275c.030609929562161.007963251412548.111325091041181-2.464012591534811,1.957428375429117-3.595318953488459l-2.455012417103717-1.691799998550778c-.515352395162154.347302675618266-1.396902133304138,1.207913556149833-1.842470583832437,2.024536226598684-.477956577034092.814855970960707-.859643381601018,2.066539265792926-.885823670319041,2.787325802348278Z" style="fill: url(#linear-gradient-7);"/>
      </g>
      <path d="M36.485691811005381,12.065056657085734l-2.874534648730332-.340224871923965c-.02692172915431.001063403537955.080308695324675,2.320378288141001,1.573019338029553,4.207829642923571.02423380984601.0288395107209.056502555830775.032556128701799.081764947617557.023974914803148.917591061602252-.299272146378826,2.21795474659757-.841686144307459,2.235933126922646-.850795097100672.017982917703193-.009069300160263-1.201365741726477-1.937564125747485-1.016182763839424-3.040784588702081Z" style="fill: url(#linear-gradient-8); opacity: .3;"/>
    </g>
  </g>
  <path d="M55.955664357893511,68.577062842171472c6.829422267413065,5.291430008075622,17.044854047006083,6.120261233161727,23.635238184385344.043185145574171,6.866288544091731-6.331491010532773,12.019770464184148-14.24415298130134,18.719207967245893-20.736163836839296,12.742987256755441-12.348448156444647,30.40487096875313-18.763127196172718,48.077389771524395-20.359992269576651,17.672518802773993-1.596865073402114,35.465046606917895,1.291133847155834,52.699035360461494,5.516950991780504,17.495051961914214,4.289830454979892,34.748355487246954,10.011186372638804,50.562833695978043,18.635671799767806,7.5663994857332,4.126364537268273,14.997433939357506,9.121799188195837,19.64127890635973,16.382093432469446,4.640498662747632,7.255062555575932,5.875447316544523,18.340914164227797-1.31093986210908,24.428117083336474" style="fill: none; stroke: #000; stroke-linecap: round; stroke-linejoin: round; stroke-width: .912239491939545px;"/>
</svg>