<svg width="24" height="24" viewBox="0 0 24 24" fill="none" xmlns="http://www.w3.org/2000/svg">
<path d="M16 2H8C4.69141 2 2 4.69141 2 8V16C2 19.3086 4.69141 22 8 22H16C19.3086 22 22 19.3086 22 16V8C22 4.69141 19.3086 2 16 2ZM20 16C20 18.2061 18.2056 20 16 20H8C5.79443 20 4 18.2061 4 16V8C4 5.79395 5.79443 4 8 4H16C18.2056 4 20 5.79395 20 8V16ZM17.71 6.29004C17.8896 6.47949 18 6.74023 18 7C18 7.25977 17.8896 7.51953 17.71 7.70996C17.52 7.88965 17.2598 8 17 8C16.7397 8 16.48 7.88965 16.29 7.70996C16.1099 7.51953 16 7.25977 16 7C16 6.74023 16.1099 6.47949 16.29 6.29004C16.6699 5.91992 17.3296 5.91992 17.71 6.29004ZM12 7C9.24316 7 7 9.24316 7 12C7 14.7568 9.24316 17 12 17C14.7568 17 17 14.7568 17 12C17 9.24316 14.7568 7 12 7ZM12 15C10.3457 15 9 13.6543 9 12C9 10.3457 10.3457 9 12 9C13.6543 9 15 10.3457 15 12C15 13.6543 13.6543 15 12 15Z" fill="url(#paint0_linear_550_1337)"/>
<defs>
<linearGradient id="paint0_linear_550_1337" x1="2" y1="12" x2="22" y2="12" gradientUnits="userSpaceOnUse">
<stop stop-color="#FFF33B"/>
<stop offset="0.0401054" stop-color="#FEE72E"/>
<stop offset="0.11709" stop-color="#FED51B"/>
<stop offset="0.196406" stop-color="#FDCA10"/>
<stop offset="0.280899" stop-color="#FDC70C"/>
<stop offset="0.668539" stop-color="#F3903F"/>
<stop offset="0.88764" stop-color="#ED683C"/>
<stop offset="1" stop-color="#E93E3A"/>
</linearGradient>
</defs>
</svg>
