<svg width="38" height="38" viewBox="0 0 38 38" fill="none" xmlns="http://www.w3.org/2000/svg">
<path d="M18.9091 37.8182C29.3523 37.8182 37.8182 29.3523 37.8182 18.9091C37.8182 8.46589 29.3523 0 18.9091 0C8.46589 0 0 8.46589 0 18.9091C0 29.3523 8.46589 37.8182 18.9091 37.8182Z" fill="url(#paint0_linear_5_42)"/>
<path d="M18.909 9.14889C22.088 9.14889 22.4645 9.16103 23.72 9.2183C24.8808 9.27129 25.5112 9.46523 25.9307 9.62824C26.4864 9.84425 26.883 10.1022 27.2996 10.5188C27.7162 10.9355 27.9742 11.3321 28.1902 11.8878C28.3532 12.3073 28.5472 12.9377 28.6002 14.0985C28.6574 15.3539 28.6696 15.7305 28.6696 18.9095C28.6696 22.0884 28.6574 22.4649 28.6002 23.7204C28.5472 24.8812 28.3532 25.5116 28.1902 25.9311C27.9742 26.4868 27.7162 26.8834 27.2996 27.3C26.883 27.7166 26.4864 27.9747 25.9307 28.1906C25.5112 28.3536 24.8807 28.5476 23.72 28.6006C22.4647 28.6578 22.0882 28.67 18.909 28.67C15.7298 28.67 15.3533 28.6578 14.0981 28.6006C12.9373 28.5476 12.3069 28.3536 11.8874 28.1906C11.3317 27.9747 10.9351 27.7166 10.5185 27.3C10.1019 26.8834 9.84384 26.4868 9.62788 25.9311C9.46486 25.5116 9.27092 24.8811 9.21793 23.7204C9.16067 22.4649 9.14852 22.0884 9.14852 18.9094C9.14852 15.7304 9.16067 15.3539 9.21793 14.0985C9.27092 12.9377 9.46482 12.3073 9.62788 11.8877C9.84384 11.332 10.1019 10.9354 10.5185 10.5188C10.9351 10.1022 11.3317 9.84416 11.8874 9.6282C12.3069 9.46518 12.9374 9.27124 14.0981 9.21825C15.3536 9.16099 15.7301 9.14889 18.909 9.14889ZM18.909 7.00366C15.6756 7.00366 15.2702 7.01736 14.0003 7.07529C12.7331 7.13309 11.8677 7.33437 11.1103 7.62868C10.3274 7.93292 9.66347 8.34002 9.00156 9.00189C8.3397 9.66379 7.9326 10.3277 7.62832 11.1106C7.334 11.868 7.13272 12.7334 7.07493 14.0006C7.017 15.2705 7.0033 15.676 7.0033 18.9094C7.0033 22.1428 7.017 22.5482 7.07493 23.8181C7.13272 25.0853 7.334 25.9508 7.62832 26.7081C7.93255 27.491 8.33966 28.1549 9.00156 28.8168C9.66347 29.4787 10.3274 29.8858 11.1103 30.19C11.8677 30.4844 12.7331 30.6856 14.0003 30.7434C15.2702 30.8014 15.6756 30.8151 18.909 30.8151C22.1425 30.8151 22.5479 30.8014 23.8178 30.7434C25.085 30.6856 25.9504 30.4844 26.7078 30.19C27.4907 29.8858 28.1546 29.4787 28.8165 28.8168C29.4784 28.1549 29.8855 27.491 30.1897 26.7081C30.484 25.9508 30.6853 25.0853 30.7431 23.8181C30.801 22.5482 30.8147 22.1428 30.8147 18.9094C30.8147 15.676 30.801 15.2705 30.7431 14.0006C30.6853 12.7334 30.484 11.868 30.1897 11.1106C29.8855 10.3277 29.4784 9.66379 28.8165 9.00189C28.1546 8.34002 27.4907 7.93292 26.7078 7.62868C25.9504 7.33437 25.085 7.13309 23.8178 7.07529C22.5479 7.01736 22.1425 7.00366 18.909 7.00366Z" fill="white"/>
<path d="M18.909 12.7954C15.5325 12.7954 12.7953 15.5326 12.7953 18.9091C12.7953 22.2856 15.5325 25.0229 18.909 25.0229C22.2855 25.0229 25.0228 22.2856 25.0228 18.9091C25.0228 15.5326 22.2855 12.7954 18.909 12.7954ZM18.909 22.8777C16.7173 22.8777 14.9404 21.101 14.9404 18.9091C14.9404 16.7173 16.7173 14.9405 18.909 14.9405C21.1008 14.9405 22.8776 16.7173 22.8776 18.9091C22.8776 21.101 21.1008 22.8777 18.909 22.8777Z" fill="white"/>
<path d="M26.2741 13.5644C26.832 13.0065 26.832 12.1019 26.2741 11.544C25.7161 10.986 24.8116 10.986 24.2536 11.544C23.6957 12.1019 23.6957 13.0065 24.2536 13.5644C24.8116 14.1224 25.7161 14.1223 26.2741 13.5644Z" fill="white"/>
<defs>
<linearGradient id="paint0_linear_5_42" x1="21.1293" y1="-2.21455" x2="16.9035" y2="37.9908" gradientUnits="userSpaceOnUse">
<stop offset="0.1117" stop-color="#5254D4"/>
<stop offset="0.4441" stop-color="#FF00B9"/>
<stop offset="0.7179" stop-color="#FF145E"/>
<stop offset="0.9777" stop-color="#FACA31"/>
</linearGradient>
</defs>
</svg>
